<svg width="227" height="78" viewBox="0 0 227 78" fill="none" xmlns="http://www.w3.org/2000/svg">
<path d="M181.844 10.3354C190.08 2.37811 209.967 1.31445 220.388 1.31445C222.899 1.31445 224.895 1.31445 226 1.43563V20.6623C223.928 20.5276 219.283 20.2853 213.683 20.4872C203.639 20.8238 195.479 22.3049 189.277 24.8765C181.982 22.8973 178.505 20.8373 178.228 18.6965C177.952 16.5557 178.417 13.6744 181.844 10.3354Z" fill="url(#paint0_linear_1278_7941)"/>
<path d="M225.987 62.0778C225.987 62.0778 225.987 62.724 223.476 63.3299C221.43 63.8012 218.454 64.1378 215.014 64.5148C204.154 65.6996 188.097 67.4634 178.178 77.0094C178.706 63.2491 183.2 54.2417 191.989 49.5293C192.087 49.462 192.192 49.4078 192.302 49.3677C198.693 46.0421 206.113 45.3285 212.754 44.8034C218.253 44.3187 223.162 43.8879 225.887 41.7471L225.987 62.0778Z" fill="url(#paint1_linear_1278_7941)"/>
<path d="M212.742 42.5549C206.465 43.1069 198.555 43.7936 191.863 47.1462C188.323 46.2171 179.509 43.8475 178.292 41.6124V22.5474C180.338 24.2304 183.941 25.6979 189.214 27.0982L189.49 27.1655C193.86 28.3234 198.919 29.3198 203.828 30.2892C209.829 31.4875 215.441 32.8877 219.773 33.9379C225.021 35.2843 226.05 36.9404 226.05 37.6944C225.987 40.9392 220.652 41.8683 212.742 42.5549Z" fill="url(#paint2_linear_1278_7941)"/>
<path d="M7.74565 13.3267C7.74565 12.6544 7.9726 12.0747 8.42652 11.5879C8.88073 11.1008 9.42069 10.8574 10.0482 10.8574C10.675 10.8574 11.2159 11.1008 11.6698 11.5879C12.1237 12.0747 12.3509 12.6544 12.3509 13.3267C12.3509 13.9996 12.1237 14.5786 11.6698 15.0657C11.2159 15.5528 10.675 15.7959 10.0482 15.7959C9.42069 15.7959 8.88073 15.5528 8.42652 15.0657C7.9726 14.5786 7.74565 13.9996 7.74565 13.3267ZM4.40508 25.8652C4.40508 26.1411 4.43771 26.4347 4.50239 26.7456C4.56736 27.0565 4.68604 27.333 4.859 27.5748C5.03225 27.8167 5.26441 28.018 5.55633 28.179C5.84855 28.3403 6.22133 28.4211 6.67524 28.4211C6.9562 28.4211 7.24293 28.4097 7.53457 28.3868C7.82679 28.3639 8.12362 28.2945 8.42652 28.179V23.4127H6.80518C6.00505 23.4127 5.40503 23.6375 5.00511 24.0868C4.60519 24.5355 4.40508 25.1285 4.40508 25.8652ZM2.45948 13.3267C2.45948 12.6544 2.68643 12.0747 3.14064 11.5879C3.59456 11.1008 4.13452 10.8574 4.76198 10.8574C5.38886 10.8574 5.9294 11.1008 6.38332 11.5879C6.83752 12.0747 7.06448 12.6544 7.06448 13.3267C7.06448 13.9996 6.83752 14.5786 6.38332 15.0657C5.9294 15.5528 5.38886 15.7959 4.76198 15.7959C4.13452 15.7959 3.59456 15.5528 3.14064 15.0657C2.68643 14.5786 2.45948 13.9996 2.45948 13.3267ZM13.4537 34.9247C12.9345 34.9247 12.4318 34.8847 11.9455 34.803C11.459 34.7221 11.01 34.5769 10.5997 34.3682C10.1885 34.1595 9.8261 33.8758 9.51309 33.516C9.19951 33.1568 8.95609 32.6874 8.78342 32.1074C8.41555 32.2006 8.03757 32.2758 7.64834 32.3337C7.25939 32.3919 6.86986 32.4204 6.48092 32.4204C5.94008 32.4204 5.3132 32.3337 4.5997 32.1597C3.88648 31.9857 3.21023 31.6676 2.57295 31.2035C1.93481 30.7399 1.39427 30.0964 0.951327 29.273C0.508093 28.4502 0.286621 27.3897 0.286621 26.0906C0.286621 24.8157 0.49741 23.7378 0.918987 22.8559C1.34056 21.9752 1.88082 21.2565 2.54033 20.7C3.19983 20.1436 3.93499 19.7435 4.74581 19.5001C5.55633 19.2564 6.35098 19.1347 7.12916 19.1347H12.6429V29.5338C12.6429 30.0676 12.7076 30.4327 12.8372 30.6293C12.9668 30.8266 13.2695 30.9251 13.7453 30.9251H14.5235C14.6965 30.9251 14.8585 30.9424 15.0101 30.9771C15.1611 31.0118 15.2962 31.0932 15.4155 31.2205C15.5338 31.3484 15.6262 31.5394 15.6912 31.7946C15.7562 32.0501 15.7885 32.3975 15.7885 32.8382C15.7885 33.6262 15.6857 34.1716 15.4804 34.4726C15.2745 34.7739 14.9561 34.9247 14.5235 34.9247H13.4537Z" fill="#413B3D"/>
<path d="M20.6526 40.7677C20.6526 40.0948 20.8796 39.5158 21.3338 39.0287C21.7877 38.5416 22.328 38.2985 22.9551 38.2985C23.582 38.2985 24.1229 38.5416 24.5768 39.0287C25.0307 39.5158 25.2577 40.0948 25.2577 40.7677C25.2577 41.44 25.0307 42.0197 24.5768 42.5068C24.1229 42.9936 23.582 43.237 22.9551 43.237C22.328 43.237 21.7877 42.9936 21.3338 42.5068C20.8796 42.0197 20.6526 41.44 20.6526 40.7677ZM15.3665 40.7677C15.3665 40.0948 15.5934 39.5158 16.0474 39.0287C16.5016 38.5416 17.0418 38.2985 17.669 38.2985C18.2959 38.2985 18.8364 38.5416 19.2906 39.0287C19.7448 39.5158 19.9718 40.0948 19.9718 40.7677C19.9718 41.44 19.7448 42.0197 19.2906 42.5068C18.8364 42.9936 18.2959 43.237 17.669 43.237C17.0418 43.237 16.5016 42.9936 16.0474 42.5068C15.5934 42.0197 15.3665 41.44 15.3665 40.7677ZM26.1334 34.9247C25.8305 34.9247 25.5063 34.9018 25.1606 34.8554C24.8144 34.8089 24.4795 34.7222 24.1552 34.5943C23.8309 34.467 23.5228 34.2874 23.2309 34.0552C22.939 33.8239 22.6959 33.5223 22.5012 33.1513C22.2419 33.5452 21.9281 33.8641 21.5608 34.1075C21.1929 34.3509 20.8037 34.5308 20.3931 34.6463C19.9822 34.7625 19.5551 34.8377 19.1122 34.8727C18.6686 34.9074 18.2309 34.9247 17.7986 34.9247H14.523C14.3506 34.9247 14.1881 34.9074 14.0368 34.8727C13.8858 34.8377 13.7503 34.7566 13.6314 34.629C13.5127 34.502 13.4206 34.3107 13.3556 34.0552C13.2909 33.8003 13.2583 33.4526 13.2583 33.0119C13.2583 32.2238 13.3611 31.6788 13.5664 31.3772C13.7723 31.0759 14.0911 30.9251 14.523 30.9251H17.1178C17.8523 30.9251 18.3663 30.8034 18.6582 30.5597C18.9502 30.3166 19.096 29.7661 19.096 28.908V21.0825H23.312V28.5252C23.312 29.3833 23.5228 29.998 23.9444 30.3687C24.366 30.7399 25.0957 30.9251 26.1334 30.9251C26.3061 30.9251 26.4684 30.9425 26.62 30.9771C26.771 31.0118 26.9061 31.0933 27.0254 31.2205C27.1438 31.3484 27.2362 31.5395 27.3009 31.7947C27.3658 32.0501 27.3985 32.3976 27.3985 32.8382C27.3985 33.6263 27.2954 34.1716 27.0901 34.4726C26.8845 34.7739 26.5657 34.9247 26.1334 34.9247Z" fill="#413B3D"/>
<path d="M29.8627 30.9251V10.0923H34.0788V34.9247H26.1332C25.9605 34.9247 25.7982 34.9074 25.6466 34.8727C25.4956 34.8377 25.3605 34.7566 25.2412 34.629C25.1226 34.502 25.0304 34.3106 24.9655 34.0552C24.9008 33.8003 24.8682 33.4526 24.8682 33.0119C24.8682 32.2238 24.9712 31.6788 25.1763 31.3772C25.3821 31.0759 25.7009 30.9251 26.1332 30.9251H29.8627Z" fill="#413B3D"/>
<path d="M45.6566 32.8382C45.6566 33.6263 45.5535 34.1716 45.3482 34.4726C45.1426 34.7739 44.8238 34.9247 44.3916 34.9247H43.0295C42.2944 34.9247 41.6187 34.8377 41.0028 34.6637C40.3863 34.4899 39.8564 34.2004 39.4135 33.7944C38.9702 33.3888 38.624 32.8497 38.3757 32.1771C38.1268 31.5051 38.0029 30.6699 38.0029 29.6731V10.0923H42.219V29.0467C42.219 29.8589 42.3536 30.3745 42.6241 30.5947C42.8944 30.8152 43.2778 30.9251 43.7754 30.9251H44.3916C44.5645 30.9251 44.7268 30.9424 44.8781 30.9771C45.0291 31.0118 45.1645 31.0933 45.2835 31.2205C45.4022 31.3484 45.4943 31.5395 45.5593 31.7946C45.6239 32.0501 45.6566 32.3976 45.6566 32.8382Z" fill="#413B3D"/>
<path d="M44.359 34.9249C44.1866 34.9249 44.024 34.9075 43.8727 34.8729C43.7217 34.8379 43.5863 34.7567 43.4673 34.6295C43.3486 34.5022 43.2565 34.3108 43.1915 34.0554C43.1269 33.8005 43.0942 33.4528 43.0942 33.0121C43.0942 32.224 43.197 31.679 43.4023 31.3774C43.6079 31.0761 43.9267 30.9253 44.359 30.9253H49.1589C49.3318 30.9253 49.4938 30.9426 49.6454 30.9773C49.7962 31.012 49.9316 31.0934 50.0505 31.2207C50.1692 31.3486 50.2616 31.5397 50.3266 31.7948C50.3913 32.0503 50.4236 32.3977 50.4236 32.8384C50.4236 33.6265 50.3208 34.1718 50.1155 34.4731C49.9099 34.7741 49.5911 34.9249 49.1589 34.9249H44.359Z" fill="#413B3D"/>
<path d="M61.5476 28.4563C61.5476 28.1082 61.5095 27.7605 61.4342 27.413C61.3579 27.065 61.2393 26.7581 61.0773 26.4912C60.915 26.2245 60.6987 26.0044 60.4287 25.8307C60.1579 25.6563 59.8287 25.5696 59.4392 25.5696C58.877 25.5696 58.2931 25.8944 57.6882 26.5435C57.0824 27.1929 56.6068 28.3405 56.2612 29.9866C56.8014 30.3344 57.3154 30.6183 57.8017 30.8385C58.2879 31.0593 58.8123 31.1689 59.3745 31.1689C60.0664 31.1689 60.6011 30.9199 60.98 30.4214C61.3579 29.9228 61.5476 29.2682 61.5476 28.4563ZM50.8454 30.9255C51.1047 30.9255 51.4234 30.6939 51.802 30.2297C52.18 29.7661 52.5204 29.0942 52.8236 28.2126C53.2989 26.8909 53.8129 25.7957 54.3641 24.9258C54.9153 24.0563 55.4934 23.3608 56.0989 22.8393C56.7041 22.3175 57.3096 21.9524 57.9152 21.7437C58.5201 21.535 59.1152 21.4307 59.6988 21.4307C60.5422 21.4307 61.3311 21.6044 62.0662 21.9524C62.8011 22.3002 63.4335 22.787 63.9636 23.4131C64.4929 24.0393 64.9093 24.793 65.2122 25.674C65.5145 26.555 65.6664 27.5174 65.6664 28.5606C65.6664 28.7232 65.6606 28.8734 65.6499 29.0127C65.639 29.1515 65.6338 29.2908 65.6338 29.4299C65.9144 29.9866 66.3473 30.3749 66.9311 30.5951C67.5147 30.8156 68.0662 30.9255 68.5848 30.9255C68.7578 30.9255 68.9198 30.9429 69.0714 30.9775C69.2224 31.0122 69.3578 31.0937 69.4768 31.2209C69.5954 31.3488 69.6875 31.5399 69.7525 31.7951C69.8172 32.0505 69.8498 32.398 69.8498 32.8386C69.8498 33.6267 69.7467 34.172 69.5417 34.4733C69.3359 34.7743 69.0174 34.9251 68.5848 34.9251C67.763 34.9251 67.0281 34.757 66.3799 34.421C65.7311 34.085 65.1686 33.5459 64.6933 32.8036C64.2394 33.6152 63.6119 34.2414 62.8124 34.6817C62.012 35.1217 61.0394 35.3425 59.8934 35.3425C59.0286 35.3425 58.1528 35.2032 57.2666 34.9251C56.3796 34.6467 55.4611 34.172 54.5099 33.4991C53.9474 34.172 53.3748 34.5774 52.7913 34.7164C52.2074 34.8558 51.5696 34.9251 50.8777 34.9251H49.1588C48.9861 34.9251 48.8238 34.9078 48.6722 34.8731C48.5215 34.8381 48.3861 34.757 48.2671 34.6297C48.1484 34.5024 48.0563 34.3111 47.9913 34.0556C47.9264 33.8007 47.894 33.453 47.894 33.0123C47.894 32.2242 47.9968 31.6792 48.2021 31.3776C48.4077 31.0763 48.7265 30.9255 49.1588 30.9255H50.8454Z" fill="#413B3D"/>
<path d="M72.3141 30.9251V10.0923H76.5301V34.9247H68.5846C68.4119 34.9247 68.2496 34.9074 68.0983 34.8727C67.9473 34.8377 67.8119 34.7566 67.6929 34.629C67.5742 34.502 67.4821 34.3106 67.4171 34.0552C67.3522 33.8003 67.3198 33.4526 67.3198 33.0119C67.3198 32.2238 67.4226 31.6788 67.6279 31.3772C67.8335 31.0759 68.1523 30.9251 68.5846 30.9251H72.3141Z" fill="#413B3D"/>
<path d="M84.6702 34.9247H80.4541V10.0923H84.6702V34.9247Z" fill="#413B3D"/>
<path d="M102.312 19.5869C102.312 18.9146 102.539 18.3353 102.993 17.8482C103.447 17.3614 103.987 17.1177 104.615 17.1177C105.242 17.1177 105.782 17.3614 106.236 17.8482C106.69 18.3353 106.917 18.9146 106.917 19.5869C106.917 20.2598 106.69 20.8389 106.236 21.326C105.782 21.8131 105.242 22.0565 104.615 22.0565C103.987 22.0565 103.447 21.8131 102.993 21.326C102.539 20.8389 102.312 20.2598 102.312 19.5869ZM113.371 30.2294C113.371 32.0617 113.165 33.5861 112.755 34.8031C112.344 36.0204 111.755 36.9995 110.988 37.7421C110.22 38.4837 109.279 39.0114 108.166 39.3242C107.052 39.6372 105.804 39.7939 104.42 39.7939C101.501 39.7939 99.3012 39.0343 97.8205 37.5157C96.3395 35.9968 95.5991 33.7543 95.5991 30.7858V25.3256H99.8149V30.6121C99.8149 32.2354 100.187 33.4759 100.93 34.3333C101.673 35.1908 102.885 35.6206 104.566 35.6206C106.139 35.6206 107.308 35.2552 108.073 34.525C108.838 33.7945 109.22 32.5717 109.22 30.8558V21.5H113.404L113.371 30.2294Z" fill="#413B3D"/>
<path d="M124.949 32.8382C124.949 33.6263 124.846 34.1716 124.641 34.4726C124.435 34.7739 124.116 34.9247 123.684 34.9247H122.322C121.587 34.9247 120.911 34.8377 120.295 34.6637C119.679 34.4899 119.149 34.2004 118.706 33.7944C118.263 33.3888 117.917 32.8497 117.668 32.1771C117.419 31.5051 117.295 30.6699 117.295 29.6731V10.0923H121.511V29.0467C121.511 29.8589 121.646 30.3745 121.917 30.5947C122.187 30.8152 122.57 30.9251 123.068 30.9251H123.684C123.857 30.9251 124.019 30.9424 124.171 30.9771C124.322 31.0118 124.457 31.0933 124.576 31.2205C124.695 31.3484 124.787 31.5395 124.852 31.7946C124.916 32.0501 124.949 32.3976 124.949 32.8382Z" fill="#413B3D"/>
<path d="M123.651 34.9249C123.479 34.9249 123.317 34.9075 123.165 34.8729C123.014 34.8379 122.879 34.7567 122.76 34.6295C122.641 34.5022 122.549 34.3108 122.484 34.0554C122.419 33.8005 122.387 33.4528 122.387 33.0121C122.387 32.224 122.49 31.679 122.695 31.3774C122.9 31.0761 123.219 30.9253 123.651 30.9253H128.451C128.624 30.9253 128.786 30.9426 128.938 30.9773C129.089 31.012 129.224 31.0934 129.343 31.2207C129.462 31.3486 129.554 31.5397 129.619 31.7948C129.684 32.0503 129.716 32.3977 129.716 32.8384C129.716 33.6265 129.613 34.1718 129.408 34.4731C129.202 34.7741 128.884 34.9249 128.451 34.9249H123.651Z" fill="#413B3D"/>
<path d="M134.58 40.7677C134.58 40.0948 134.807 39.5158 135.262 39.0287C135.715 38.5416 136.255 38.2985 136.883 38.2985C137.51 38.2985 138.051 38.5416 138.504 39.0287C138.958 39.5158 139.185 40.0948 139.185 40.7677C139.185 41.44 138.958 42.0197 138.504 42.5068C138.051 42.9936 137.51 43.237 136.883 43.237C136.255 43.237 135.715 42.9936 135.262 42.5068C134.807 42.0197 134.58 41.44 134.58 40.7677ZM129.294 40.7677C129.294 40.0948 129.521 39.5158 129.975 39.0287C130.429 38.5416 130.969 38.2985 131.597 38.2985C132.224 38.2985 132.764 38.5416 133.218 39.0287C133.672 39.5158 133.899 40.0948 133.899 40.7677C133.899 41.44 133.672 42.0197 133.218 42.5068C132.764 42.9936 132.224 43.237 131.597 43.237C130.969 43.237 130.429 42.9936 129.975 42.5068C129.521 42.0197 129.294 41.44 129.294 40.7677ZM140.061 34.9247C139.758 34.9247 139.434 34.9018 139.088 34.8554C138.742 34.8089 138.407 34.7222 138.083 34.5943C137.759 34.467 137.451 34.2874 137.159 34.0552C136.867 33.8239 136.624 33.5223 136.429 33.1513C136.169 33.5452 135.856 33.8641 135.489 34.1075C135.12 34.3509 134.731 34.5308 134.321 34.6463C133.91 34.7625 133.483 34.8377 133.04 34.8727C132.596 34.9074 132.159 34.9247 131.726 34.9247H128.451C128.278 34.9247 128.116 34.9074 127.965 34.8727C127.813 34.8377 127.678 34.7566 127.559 34.629C127.44 34.502 127.348 34.3107 127.283 34.0552C127.219 33.8003 127.186 33.4526 127.186 33.0119C127.186 32.2238 127.289 31.6788 127.494 31.3772C127.7 31.0759 128.019 30.9251 128.451 30.9251H131.045C131.78 30.9251 132.294 30.8034 132.586 30.5597C132.878 30.3166 133.023 29.7661 133.023 28.908V21.0825H137.24V28.5252C137.24 29.3833 137.451 29.998 137.872 30.3687C138.294 30.7399 139.023 30.9251 140.061 30.9251C140.234 30.9251 140.396 30.9425 140.547 30.9771C140.699 31.0118 140.834 31.0933 140.953 31.2205C141.072 31.3484 141.163 31.5395 141.229 31.7947C141.294 32.0501 141.326 32.3976 141.326 32.8382C141.326 33.6263 141.223 34.1716 141.018 34.4726C140.812 34.7739 140.493 34.9247 140.061 34.9247Z" fill="#413B3D"/>
<path d="M143.272 40.6634C143.272 39.9905 143.498 39.4114 143.952 38.9243C144.406 38.4372 144.947 38.1941 145.574 38.1941C146.201 38.1941 146.741 38.4372 147.196 38.9243C147.65 39.4114 147.877 39.9905 147.877 40.6634C147.877 41.3353 147.65 41.9156 147.196 42.4024C146.741 42.8892 146.201 43.1326 145.574 43.1326C144.947 43.1326 144.406 42.8892 143.952 42.4024C143.498 41.9156 143.272 41.3353 143.272 40.6634ZM143.79 30.9251V21.0825H148.006V34.9247H140.061C139.888 34.9247 139.726 34.9074 139.574 34.8727C139.423 34.8377 139.288 34.7566 139.169 34.629C139.051 34.502 138.958 34.3107 138.893 34.0552C138.829 33.8003 138.796 33.4526 138.796 33.0119C138.796 32.2238 138.899 31.6788 139.104 31.3772C139.31 31.0759 139.628 30.9251 140.061 30.9251H143.79Z" fill="#413B3D"/>
<path d="M156.147 34.9248H151.931V10.0924H156.147V34.9248ZM157.087 8.00562H150.763V5.57106H152.093C151.985 5.40941 151.909 5.17686 151.866 4.87525C151.823 4.57426 151.801 4.33086 151.801 4.14506C151.801 3.61214 151.882 3.14238 152.044 2.73641C152.207 2.33106 152.428 1.99477 152.709 1.72815C152.99 1.46153 153.309 1.25839 153.666 1.11936C154.023 0.980318 154.384 0.910645 154.753 0.910645C155.098 0.910645 155.412 0.945636 155.693 1.015C155.973 1.08436 156.222 1.16612 156.439 1.25839V3.55361C155.876 3.41488 155.476 3.34521 155.239 3.34521C154.828 3.34521 154.531 3.44956 154.347 3.65828C154.163 3.86699 154.071 4.12215 154.071 4.42314C154.071 4.74859 154.162 5.02048 154.344 5.24065C154.525 5.46144 154.873 5.57106 155.387 5.57106H157.087V8.00562Z" fill="#413B3D"/>
<path d="M0 62.4306L4.42598 50.0571H6.10449L10.8019 62.4306H9.06419L7.7293 58.6806H2.87105L1.61932 62.4306H0H0ZM3.31949 57.35H7.25141L6.04819 53.9199C5.68551 52.8769 5.41178 52.0157 5.22091 51.336C5.06268 52.1427 4.85045 52.9345 4.58451 53.718L3.31949 57.35Z" fill="#413B3D"/>
<path d="M14.5854 62.4306V50.0571H18.9147C19.7954 50.0571 20.502 50.181 21.0364 50.4318C21.568 50.6823 21.9844 51.0682 22.285 51.5896C22.5885 52.108 22.7389 52.6524 22.7389 53.2228C22.7389 53.7498 22.6049 54.2478 22.339 54.7144C22.0731 55.1811 21.6703 55.5586 21.1303 55.8466C21.8288 56.0652 22.3659 56.4399 22.7389 56.9697C23.1152 57.4968 23.3031 58.122 23.3031 58.8416C23.3031 59.4238 23.1876 59.9623 22.9592 60.4605C22.7311 60.9588 22.449 61.3418 22.1132 61.6125C21.7774 61.8803 21.3558 62.085 20.8511 62.2231C20.3434 62.3612 19.7229 62.4306 18.9872 62.4306H14.5854ZM16.1161 55.2588H18.6109C19.2878 55.2588 19.774 55.2099 20.0668 55.1148C20.4563 54.991 20.7488 54.7838 20.9449 54.4958C21.141 54.2078 21.2403 53.8477 21.2403 53.4126C21.2403 53.0008 21.1491 52.6379 20.964 52.327C20.7812 52.013 20.5178 51.7971 20.1768 51.6816C19.8358 51.5667 19.2502 51.5088 18.4232 51.5088H16.1161V55.2588ZM16.1161 60.9789H18.9898C19.4838 60.9789 19.8303 60.9588 20.0319 60.9185C20.381 60.8523 20.6764 60.7399 20.9129 60.5816C21.1491 60.4231 21.3425 60.1927 21.4956 59.8901C21.6486 59.5876 21.7237 59.2392 21.7237 58.8447C21.7237 58.3812 21.6137 57.9808 21.3907 57.638C21.1704 57.2952 20.8643 57.0561 20.4722 56.9177C20.0827 56.7796 19.5188 56.7105 18.7859 56.7105H16.1161V60.9789Z" fill="#413B3D"/>
<path d="M31.2862 62.4306V57.1886L26.8389 50.0571H28.6759L30.9559 53.8016C31.3803 54.4958 31.7751 55.1898 32.1349 55.8837C32.4868 55.2359 32.9136 54.5101 33.4106 53.7037L35.6449 50.0571H37.4256L32.8169 57.1886V62.4306H31.2862Z" fill="#413B3D"/>
<path d="M38.958 62.4306L43.384 50.0571H45.0628L49.7599 62.4306H48.0222L46.6876 58.6806H41.8291L40.5776 62.4306H38.958ZM42.2775 57.35H46.2094L45.0062 53.9199C44.6435 52.8769 44.3698 52.0157 44.1789 51.336C44.0207 52.1427 43.8085 52.9345 43.5425 53.718L42.2775 57.35Z" fill="#413B3D"/>
<path d="M53.5913 62.4306V50.0571H55.1598L61.2132 59.7691V50.0571H62.6798V62.4306H61.1113L55.0576 52.7187V62.4306H53.5913Z" fill="#413B3D"/>
<path d="M83.8792 58.2972L85.4099 58.7122C85.0902 60.057 84.5156 61.0799 83.6857 61.7853C82.8556 62.491 81.8406 62.8452 80.64 62.8452C79.3992 62.8452 78.3894 62.5746 77.6107 62.0302C76.8316 61.4889 76.2408 60.7024 75.8354 59.6743C75.4297 58.6431 75.2256 57.5398 75.2256 56.3591C75.2256 55.0718 75.454 53.9486 75.9134 52.9893C76.3725 52.0303 77.0251 51.3013 77.8711 50.8031C78.7172 50.3049 79.649 50.0571 80.6642 50.0571C81.8189 50.0571 82.7886 50.3714 83.5728 51.0019C84.3597 51.6327 84.9074 52.5168 85.2164 53.6576L83.7178 54.0378C83.4518 53.1389 83.0626 52.4824 82.555 52.0733C82.0473 51.6615 81.408 51.4571 80.6374 51.4571C79.7538 51.4571 79.0126 51.6847 78.4192 52.1396C77.8255 52.5948 77.4065 53.2082 77.1674 53.9744C76.9258 54.7432 76.8051 55.5354 76.8051 56.3504C76.8051 57.4017 76.9474 58.3205 77.2318 59.1039C77.5165 59.8901 77.9598 60.4751 78.5612 60.8637C79.1627 61.2526 79.8127 61.4456 80.5138 61.4456C81.3679 61.4456 82.0875 61.1805 82.6785 60.6535C83.2693 60.1236 83.6695 59.3402 83.8792 58.2972Z" fill="#413B3D"/>
<path d="M88.6729 62.6378L93.0988 50.2646H94.7776L99.4748 62.6378H97.737L96.4024 58.8878H91.5439L90.2925 62.6378H88.6729ZM91.9923 57.5572H95.9243L94.721 54.1271C94.3584 53.0844 94.0846 52.2233 93.8938 51.5436C93.7355 52.3499 93.5233 53.142 93.2574 53.9255L91.9923 57.5572Z" fill="#413B3D"/>
<path d="M103.326 62.6378V50.2646H107.683C108.448 50.2646 109.033 50.3049 109.439 50.3829C110.006 50.4836 110.481 50.6765 110.865 50.9589C111.249 51.2438 111.558 51.6414 111.791 52.1511C112.025 52.6611 112.141 53.2229 112.141 53.836C112.141 54.8845 111.829 55.7745 111.203 56.5003C110.58 57.2289 109.449 57.5919 107.817 57.5919H104.857V62.6378H103.326ZM104.857 56.1402H107.838C108.826 56.1402 109.525 55.9445 109.941 55.5496C110.355 55.1551 110.561 54.6024 110.561 53.8852C110.561 53.3696 110.441 52.9259 110.196 52.5574C109.952 52.1889 109.629 51.9439 109.232 51.826C108.974 51.7538 108.499 51.7163 107.809 51.7163H104.857V56.1402Z" fill="#413B3D"/>
<path d="M116.972 62.6378V50.2646H118.503V62.6378H116.972Z" fill="#413B3D"/>
<path d="M126.764 62.6378V51.7163H122.961V50.2646H132.098V51.7163H128.295V62.6378H126.764Z" fill="#413B3D"/>
<path d="M133.854 62.6378L138.28 50.2646H139.959L144.656 62.6378H142.919L141.584 58.8878H136.726L135.474 62.6378H133.854ZM137.174 57.5572H141.106L139.903 54.1271C139.54 53.0844 139.266 52.2233 139.075 51.5436C138.917 52.3499 138.705 53.142 138.439 53.9255L137.174 57.5572Z" fill="#413B3D"/>
<path d="M148.443 62.6378V50.2646H149.974V61.1864H155.646V62.6378H148.443Z" fill="#413B3D"/>
<defs>
<linearGradient id="paint0_linear_1278_7941" x1="168.75" y1="71.4621" x2="220.124" y2="-0.183609" gradientUnits="userSpaceOnUse">
<stop stop-color="#224A99"/>
<stop offset="1" stop-color="#408CBE"/>
</linearGradient>
<linearGradient id="paint1_linear_1278_7941" x1="7270.14" y1="2255.16" x2="8393.26" y2="-22.3685" gradientUnits="userSpaceOnUse">
<stop stop-color="#224A99"/>
<stop offset="1" stop-color="#408CBE"/>
</linearGradient>
<linearGradient id="paint2_linear_1278_7941" x1="6715.97" y1="1376.22" x2="7322.03" y2="-384.003" gradientUnits="userSpaceOnUse">
<stop stop-color="#224A99"/>
<stop offset="1" stop-color="#408CBE"/>
</linearGradient>
</defs>
</svg>
