<svg xmlns="http://www.w3.org/2000/svg" xmlns:xlink="http://www.w3.org/1999/xlink" width="58.7" height="63.6" viewBox="0 0 58.7 63.6">
  <defs>
    <clipPath id="clip-path">
      <rect id="Rectangle_55" data-name="Rectangle 55" width="63.6" height="58.7" fill="#1b4242"/>
    </clipPath>
  </defs>
  <g id="Group_2498" data-name="Group 2498" transform="translate(0 63.6) rotate(-90)">
    <g id="Group_2497" data-name="Group 2497" transform="translate(0 0)" clip-path="url(#clip-path)">
      <path id="Path_2253" data-name="Path 2253" d="M44.684,4.979c-2.293,0-4.518.157-6.707-.042A5.977,5.977,0,0,0,32.76,7.1C25.683,14.335,18.48,21.447,11.322,28.6c-.76.757-.757.76.02,1.537Q22.778,41.578,34.208,53.027a2.31,2.31,0,0,0,1.807.734c4.962-.026,9.921-.013,14.88-.013a2.37,2.37,0,0,1,2.274,1.393,2.345,2.345,0,0,1-.254,2.587,2.285,2.285,0,0,1-1.9.969q-8.623,0-17.245,0a2.89,2.89,0,0,1-2.052-1.037q-2-1.992-3.993-3.99-10.952-10.957-21.9-21.91a6.894,6.894,0,0,1-.894-1.034,2.342,2.342,0,0,1,0-2.724,6.151,6.151,0,0,1,.838-.982Q18.628,14.148,31.49,1.276A3.941,3.941,0,0,1,34.528,0c5.213.052,10.43.042,15.643.01C51.512,0,52.69.2,53.244,1.589s-.173,2.372-1.106,3.3Q40.364,16.64,28.61,28.412c-1.05,1.05-1.047.855.01,1.912q7.252,7.257,14.514,14.514a5.687,5.687,0,0,1,.933,1.1,2.423,2.423,0,0,1-.378,3.014,2.384,2.384,0,0,1-3,.391,5.58,5.58,0,0,1-1-.819q-8.451-8.437-16.889-16.883c-1.638-1.641-1.631-2.93.023-4.587Q33.44,16.43,44.07,5.8a1.785,1.785,0,0,0,.613-.822" transform="translate(10.157 0)" fill="#1b4242"/>
      <path id="Path_2254" data-name="Path 2254" d="M29.333,58.65a2.537,2.537,0,0,1-1.925-.933q-7.115-7.13-14.244-14.247Q7.121,37.427,1.081,31.383c-1.435-1.435-1.442-2.649-.016-4.075Q14.258,14.115,27.451.925A2.421,2.421,0,0,1,31.14.808a2.362,2.362,0,0,1,.072,3.256c-.2.228-.424.437-.639.656L6.725,28.568c-.77.77-.77.77-.016,1.524Q18.8,42.178,30.879,54.266a2.438,2.438,0,0,1,.059,3.8,2.222,2.222,0,0,1-1.605.587" transform="translate(-0.001 0.025)" fill="#1b4242"/>
    </g>
  </g>
</svg>
