<svg id="Group_2533" data-name="Group 2533" xmlns="http://www.w3.org/2000/svg" xmlns:xlink="http://www.w3.org/1999/xlink" width="24.13" height="16.136" viewBox="0 0 24.13 16.136">
  <defs>
    <clipPath id="clip-path">
      <rect id="Rectangle_67" data-name="Rectangle 67" width="24.13" height="16.136" fill="#fff"/>
    </clipPath>
  </defs>
  <g id="Group_2532" data-name="Group 2532" clip-path="url(#clip-path)">
    <path id="Path_2274" data-name="Path 2274" d="M24.13,15.179a1.318,1.318,0,0,1-1.446.956H1.355a1.274,1.274,0,0,1-1.324-.949A1.29,1.29,0,0,1,0,14.835Q0,8.066,0,1.3A1.245,1.245,0,0,1,1.308,0q5.25,0,10.5,0H22.685A1.317,1.317,0,0,1,24.13.955Zm-1.01-.815.053-.017v-.278q0-5.1,0-10.2c0-.667,0-1.334,0-2,0-.067.034-.158-.034-.2s-.125.044-.178.083c-.335.247-.666.5-1,.748q-4.3,3.219-8.593,6.435a2.2,2.2,0,0,1-2.636-.024Q5.961,5.334,1.186,1.753c-.058-.044-.107-.115-.2-.107V14.388c.061-.064.1-.1.132-.139L4.955,9.51c.39-.482.778-.965,1.176-1.441A.472.472,0,0,1,6.8,7.989a.477.477,0,0,1,.1.671,2.435,2.435,0,0,1-.157.206q-2.451,3.029-4.9,6.058c-.05.061-.164.118-.113.208.037.066.145.028.221.029q10.125,0,20.249,0c.074,0,.18.042.217-.036s-.063-.133-.11-.191q-2.049-2.537-4.1-5.07c-.311-.384-.626-.765-.929-1.156A.476.476,0,0,1,17.333,8a.486.486,0,0,1,.707.1q.07.079.137.162l3.287,4.063,1.657,2.046M1.824.983c.08.071.112.1.149.132,3.07,2.3,6.145,4.6,9.2,6.91a1.39,1.39,0,0,0,1.8-.006c2.614-1.98,5.243-3.94,7.867-5.908.488-.366.974-.733,1.5-1.127Z" transform="translate(0 0.001)" fill="#fff"/>
  </g>
</svg>
