<svg xmlns="http://www.w3.org/2000/svg" xmlns:xlink="http://www.w3.org/1999/xlink" width="9" height="9" viewBox="0 0 9 9">
  <defs>
    <clipPath id="clip-path">
      <rect id="Rectangle_55" data-name="Rectangle 55" width="9" height="9" fill="none"/>
    </clipPath>
  </defs>
  <g id="Group_2516" data-name="Group 2516" transform="translate(0 9) rotate(-90)">
    <g id="Group_2497" data-name="Group 2497" clip-path="url(#clip-path)">
      <path id="Path_2253" data-name="Path 2253" d="M5.688.766c-.325,0-.639.024-.949-.007A.815.815,0,0,0,4,1.092C3,2.207,1.98,3.3.967,4.4.859,4.52.86,4.52.97,4.64Q2.588,6.4,4.205,8.163a.314.314,0,0,0,.256.113c.7,0,1.4,0,2.106,0a.334.334,0,0,1,.322.214.387.387,0,0,1-.036.4.316.316,0,0,1-.269.149H4.144a.4.4,0,0,1-.29-.16l-.565-.614Q1.738,6.576.189,4.89A1.042,1.042,0,0,1,.062,4.73a.387.387,0,0,1,0-.419A.931.931,0,0,1,.18,4.16Q2,2.178,3.821.2a.537.537,0,0,1,.43-.2c.738.008,1.476.007,2.214,0,.19,0,.356.029.435.243a.467.467,0,0,1-.157.508Q5.077,2.562,3.413,4.374c-.149.162-.148.132,0,.294L5.468,6.9a.861.861,0,0,1,.132.17.4.4,0,0,1-.054.464.318.318,0,0,1-.425.06A.807.807,0,0,1,4.98,7.47q-1.2-1.3-2.39-2.6a.444.444,0,0,1,0-.706L5.6.893A.273.273,0,0,0,5.688.766" transform="translate(2.073 0)" fill="#dad3be"/>
      <path id="Path_2254" data-name="Path 2254" d="M4.151,9.027a.349.349,0,0,1-.272-.144Q2.872,7.786,1.863,6.69L.153,4.83a.4.4,0,0,1,0-.627L3.885.141A.325.325,0,0,1,4.407.123a.387.387,0,0,1,.01.5c-.028.035-.06.067-.09.1L.952,4.4c-.109.119-.109.119,0,.235L4.37,8.352a.4.4,0,0,1,.008.585.3.3,0,0,1-.227.09" transform="translate(0 0.005)" fill="#1b4242"/>
    </g>
  </g>
</svg>
