<svg xmlns="http://www.w3.org/2000/svg" width="21.421" height="21.42" viewBox="0 0 21.421 21.42">
  <g id="Group_478" data-name="Group 478" transform="translate(-2197.579 5717.346)">
    <path id="Path_1742" data-name="Path 1742" d="M2310.55-5617.68a4.087,4.087,0,0,1,1.27-1.379,5.193,5.193,0,0,1,3.545-.771,5.057,5.057,0,0,1,2.039.586,4.041,4.041,0,0,1,1.89,2.631,12.417,12.417,0,0,1,.343,3.258c.006,2.392,0,4.783.007,7.175,0,.2-.06.242-.248.241q-1.869-.013-3.737,0c-.2,0-.261-.036-.26-.251.009-2.1.006-4.2,0-6.3a9.771,9.771,0,0,0-.134-1.934,1.974,1.974,0,0,0-2.463-1.716,2.186,2.186,0,0,0-2.031,2.125,9.345,9.345,0,0,0-.1,1.414c0,2.15,0,4.3.005,6.452,0,.189-.039.249-.241.247q-1.88-.015-3.762,0c-.17,0-.243-.018-.242-.222q.01-6.6,0-13.2c0-.157.032-.212.2-.211q1.831.01,3.662,0c.178,0,.2.067.2.218-.008.466,0,.93,0,1.4C2310.5-5617.853,2310.469-5617.767,2310.55-5617.68Z" transform="translate(-101.142 -90.523)" fill="none" stroke="#fff" stroke-width="1"/>
    <path id="Path_1743" data-name="Path 1743" d="M2203.08-5608.21c0-2.19,0-4.381,0-6.571,0-.206.05-.26.258-.258,1.245.011,2.49.009,3.735,0,.184,0,.253.03.252.239q-.01,6.585,0,13.169c0,.19-.052.231-.235.229q-1.892-.012-3.784,0c-.2,0-.225-.063-.225-.238Q2203.085-5604.923,2203.08-5608.21Z" transform="translate(-4.663 -95.027)" fill="none" stroke="#fff" stroke-width="1"/>
    <path id="Path_1744" data-name="Path 1744" d="M2202.978-5714.407a2.471,2.471,0,0,1-2.427,2.485,2.483,2.483,0,0,1-2.472-2.47,2.468,2.468,0,0,1,2.432-2.455A2.453,2.453,0,0,1,2202.978-5714.407Z" fill="none" stroke="#fff" stroke-width="1"/>
  </g>
</svg>
