<svg id="Group_43" data-name="Group 43" xmlns="http://www.w3.org/2000/svg" xmlns:xlink="http://www.w3.org/1999/xlink" width="176.033" height="76.451" viewBox="0 0 176.033 76.451">
  <defs>
    <clipPath id="clip-path">
      <rect id="Rectangle_36" data-name="Rectangle 36" width="176.033" height="76.451" fill="none"/>
    </clipPath>
    <clipPath id="clip-path-3">
      <rect id="Rectangle_28" data-name="Rectangle 28" width="17.058" height="12.753" fill="none"/>
    </clipPath>
    <clipPath id="clip-path-4">
      <path id="Path_22" data-name="Path 22" d="M27.855,15.246c-.008,0-.008.009-.008.009l-.009.017-.137.308c-.035.094-.068.188-.1.282-.051.128-.094.256-.137.385A23.378,23.378,0,0,0,26.4,20.836l-.086.631.521.36a74.989,74.989,0,0,0,15.186,7.836h.009a.906.906,0,0,0,.367.068,1.035,1.035,0,0,0,1-.786l1.282-5.136.231-.888-.094-.043-.77-.282a80.963,80.963,0,0,1-14.784-7.64,1.034,1.034,0,0,0-1.41.291" transform="translate(-26.317 -14.794)" fill="none"/>
    </clipPath>
    <linearGradient id="linear-gradient" x1="-1.018" y1="4.406" x2="-0.979" y2="4.406" gradientUnits="objectBoundingBox">
      <stop offset="0" stop-color="#c8c7b0"/>
      <stop offset="0.238" stop-color="#b4baa5"/>
      <stop offset="0.7" stop-color="#8a9f8e"/>
      <stop offset="1" stop-color="#759283"/>
    </linearGradient>
    <clipPath id="clip-path-5">
      <path id="Path_23" data-name="Path 23" d="M26.239,23.434v0c-.006.27-.014.546-.014.815a24.218,24.218,0,0,0,.442,4.69l.117.629.615.172A75,75,0,0,0,44.286,32.38h0a1.036,1.036,0,0,0,1.077-1.115l-.408-5.28-.069-.918-.918-.034a80.977,80.977,0,0,1-16.438-2.57,1.026,1.026,0,0,0-.257-.032,1.038,1.038,0,0,0-1.035,1" transform="translate(-26.225 -22.43)" fill="none"/>
    </clipPath>
    <linearGradient id="linear-gradient-2" x1="-0.983" y1="6.047" x2="-0.946" y2="6.047" gradientUnits="objectBoundingBox">
      <stop offset="0" stop-color="#718e7e"/>
      <stop offset="1" stop-color="#1b4242"/>
    </linearGradient>
    <clipPath id="clip-path-7">
      <rect id="Rectangle_32" data-name="Rectangle 32" width="4.21" height="3.147" fill="none"/>
    </clipPath>
    <clipPath id="clip-path-8">
      <path id="Path_36" data-name="Path 36" d="M113.923,89.171a19.945,19.945,0,0,1-3.648,1.885l-.191.07-.022.011.057.219.316,1.267a.256.256,0,0,0,.247.193.221.221,0,0,0,.091-.017h0a18.5,18.5,0,0,0,3.747-1.934l.128-.088-.021-.156a5.8,5.8,0,0,0-.261-1.132c-.011-.032-.022-.063-.034-.095l-.025-.07-.034-.076,0,0v0a.255.255,0,0,0-.211-.112.247.247,0,0,0-.137.04" transform="translate(-110.062 -89.131)" fill="none"/>
    </clipPath>
    <linearGradient id="linear-gradient-3" x1="-17.254" y1="3.35" x2="-17.097" y2="3.35" xlink:href="#linear-gradient"/>
    <clipPath id="clip-path-9">
      <path id="Path_37" data-name="Path 37" d="M114.3,91.014a20.073,20.073,0,0,1-4.059.641l-.223.009-.017.222-.1,1.307a.255.255,0,0,0,.247.274h.018a18.493,18.493,0,0,0,2.716-.316,13.327,13.327,0,0,0,1.452-.333l.146-.042.035-.154a6.532,6.532,0,0,0,.111-1.162c0-.068-.009-.137-.009-.2v-.009a.255.255,0,0,0-.26-.246.243.243,0,0,0-.055.006" transform="translate(-109.894 -91.008)" fill="none"/>
    </clipPath>
    <linearGradient id="linear-gradient-4" x1="-16.697" y1="4.472" x2="-16.545" y2="4.472" gradientUnits="objectBoundingBox">
      <stop offset="0" stop-color="#1b4242"/>
      <stop offset="0.261" stop-color="#315652"/>
      <stop offset="1" stop-color="#718e7e"/>
    </linearGradient>
  </defs>
  <g id="Group_61" data-name="Group 61" clip-path="url(#clip-path)">
    <g id="Group_47" data-name="Group 47" transform="translate(0 0)">
      <g id="Group_46" data-name="Group 46" clip-path="url(#clip-path)">
        <path id="Path_20" data-name="Path 20" d="M161.594,30.636c-.119-.042-.24-.094-.368-.137l.2.068a.919.919,0,0,1,.163.068" transform="translate(-45.269 -8.564)" fill="#1b4242"/>
        <g id="Group_45" data-name="Group 45" transform="translate(20.466 6.169)" opacity="0.6">
          <g id="Group_44" data-name="Group 44">
            <g id="Group_43-2" data-name="Group 43" clip-path="url(#clip-path-3)">
              <path id="Path_21" data-name="Path 21" d="M32.134,8.577a1.032,1.032,0,0,0-.823.406v0c-.163.215-.329.435-.486.654a24.228,24.228,0,0,0-2.367,4.054,1.036,1.036,0,0,1,1.415-.286,80.952,80.952,0,0,0,14.782,7.635l.767.288.094-.154-.726-.563A80.943,80.943,0,0,1,32.927,8.946a1.03,1.03,0,0,0-.793-.369" transform="translate(-28.457 -8.577)" fill="#c8c7b0"/>
            </g>
          </g>
        </g>
      </g>
    </g>
    <g id="Group_49" data-name="Group 49" transform="translate(18.928 10.64)">
      <g id="Group_48" data-name="Group 48" clip-path="url(#clip-path-4)">
        <rect id="Rectangle_30" data-name="Rectangle 30" width="18.595" height="14.937" transform="translate(0 0)" fill="url(#linear-gradient)"/>
      </g>
    </g>
    <g id="Group_51" data-name="Group 51" transform="translate(18.861 16.132)">
      <g id="Group_50" data-name="Group 50" clip-path="url(#clip-path-5)">
        <rect id="Rectangle_31" data-name="Rectangle 31" width="19.186" height="9.976" transform="translate(0 0)" fill="url(#linear-gradient-2)"/>
      </g>
    </g>
    <g id="Group_56" data-name="Group 56" transform="translate(0 0)">
      <g id="Group_55" data-name="Group 55" clip-path="url(#clip-path)">
        <path id="Path_24" data-name="Path 24" d="M58.078,48.525c0,.539-.014,1.085-.042,1.651a18.252,18.252,0,0,1-.593,4.089A8.5,8.5,0,0,1,56,57.255l-.014.021a10.293,10.293,0,0,1-5.138,3.377,26.283,26.283,0,0,1-8.095,1.07h-5.2A118.546,118.546,0,0,1,.767,55.418L0,55.169l.055-.808A18.207,18.207,0,0,1,2.286,47.04l.435-.808.856.332A90.661,90.661,0,0,0,36.9,53.153H41.7a30.5,30.5,0,0,0,7.035-.682,1.875,1.875,0,0,0,1.466-1.8v-.014a28.663,28.663,0,0,0-.656-5.726l-.007-.035a39.612,39.612,0,0,0-3.4-8.833l-.373-.718.615-.532a13.028,13.028,0,0,1,6.692-3.087l.795-.132.317.746a57.6,57.6,0,0,1,3.149,10.091,22.03,22.03,0,0,1,.753,6.092" transform="translate(0 -8.872)" fill="#1b4242"/>
        <path id="Path_25" data-name="Path 25" d="M13.657,85.511a7.1,7.1,0,0,1,2.532.377L13.71,100.055a5.156,5.156,0,0,1-2.155.108q1.131-6.571,1.966-11.5L8.4,95.154a2.975,2.975,0,0,1-1.374,0L4.148,88.635,2.155,100.029A5.249,5.249,0,0,1,0,100.137q1.238-7.166,2.344-14.249a7.187,7.187,0,0,1,2.72-.377l3.07,6.976Z" transform="translate(0 -24.008)" fill="#1b4242"/>
        <path id="Path_26" data-name="Path 26" d="M27.586,97.237q-.7,0-1.832-.054v.188a2.9,2.9,0,0,0,.795,2.209,3.055,3.055,0,0,0,2.2.754,6.929,6.929,0,0,0,3.286-.781,3.936,3.936,0,0,1,.216,1.7,9.357,9.357,0,0,1-3.933.862,4.6,4.6,0,0,1-3.421-1.2,4.408,4.408,0,0,1-1.185-3.245,6.607,6.607,0,0,1,1.535-4.54,5.586,5.586,0,0,1,4.418-1.736,3.99,3.99,0,0,1,2.505.727,2.25,2.25,0,0,1,.943,1.858,2.636,2.636,0,0,1-1.469,2.438,8.349,8.349,0,0,1-4.054.821m1.562-4.256a4.5,4.5,0,0,0-1.939.431,4.524,4.524,0,0,0-1.32,2.451,16.507,16.507,0,0,0,1.7.081q3.393,0,3.394-1.643a1.121,1.121,0,0,0-.5-.97,2.276,2.276,0,0,0-1.333-.35" transform="translate(-6.657 -25.662)" fill="#1b4242"/>
        <path id="Path_27" data-name="Path 27" d="M38.575,99.571q1.8-10.612,2.532-15.488a5.093,5.093,0,0,1,2.4-.593L41.7,93.645a34.717,34.717,0,0,0,4.983-4.256,6.734,6.734,0,0,1,2.29.4A37.579,37.579,0,0,1,43.8,94.13l3.825,5.145a5.748,5.748,0,0,1-2.317.4l-3.744-5.306-.889,5.091a4.864,4.864,0,0,1-2.1.108" transform="translate(-10.831 -23.443)" fill="#1b4242"/>
        <path id="Path_28" data-name="Path 28" d="M53.068,99.571Q54.6,90.816,55.6,84.083A5.312,5.312,0,0,1,58,83.49l-1.374,7.327q2.127-1.642,2.936-1.643a3.036,3.036,0,0,1,2.681,1.319,5.092,5.092,0,0,1,.444,3.826L61.8,99.463a4.908,4.908,0,0,1-2.1.108l.835-4.9a4.3,4.3,0,0,0-.189-2.586,1.569,1.569,0,0,0-1.508-.889,4.464,4.464,0,0,0-2.4,1.185l-1.266,7.084a4.864,4.864,0,0,1-2.1.108" transform="translate(-14.901 -23.443)" fill="#1b4242"/>
        <path id="Path_29" data-name="Path 29" d="M73.211,99.894a9.979,9.979,0,0,1-3.852-.647Q70.84,90.9,71.837,84.083a5.1,5.1,0,0,1,2.4-.593l-1.374,7.327q2.127-1.643,2.963-1.643A3.4,3.4,0,0,1,78.5,90.4a4.615,4.615,0,0,1,1.063,3.138,6.419,6.419,0,0,1-1.656,4.62,6.19,6.19,0,0,1-4.7,1.738m.539-1.858a5.461,5.461,0,0,0,2.208-.458,5.087,5.087,0,0,0,1.374-3.636,3,3,0,0,0-.634-1.993,2,2,0,0,0-1.6-.754,4.47,4.47,0,0,0-2.426,1.185l-.941,5.252a4.492,4.492,0,0,0,2.02.4" transform="translate(-19.475 -23.443)" fill="#1b4242"/>
        <path id="Path_30" data-name="Path 30" d="M92.781,101.789l.134-1.428a11.593,11.593,0,0,1-1.7,1.226,3.048,3.048,0,0,1-1.347.526,3.427,3.427,0,0,1-2.707-1.226A4.611,4.611,0,0,1,86.1,97.749a6.387,6.387,0,0,1,1.67-4.62,6.231,6.231,0,0,1,4.714-1.736,9.531,9.531,0,0,1,3.852.7l-1.7,9.589a6.722,6.722,0,0,1-1.858.108m-2.182-1.7a5,5,0,0,0,2.452-1.158l.808-5.28a4,4,0,0,0-1.94-.4,5.235,5.235,0,0,0-2.209.458,5.147,5.147,0,0,0-1.346,3.636,3.026,3.026,0,0,0,.619,2.007,2.005,2.005,0,0,0,1.616.741" transform="translate(-24.176 -25.662)" fill="#1b4242"/>
        <path id="Path_31" data-name="Path 31" d="M106.158,96.669a2.411,2.411,0,0,0,.163,1.623,1.331,1.331,0,0,0,1.239.53,5.654,5.654,0,0,0,1.692-.273,7.315,7.315,0,0,1-.1,1.889,8.331,8.331,0,0,1-2.188.291q-3.5,0-2.906-3.82l.777-4.607h-2.367a4.088,4.088,0,0,1,.325-1.8h2.341l.427-3.1a5.432,5.432,0,0,1,2.35-.538l-.649,3.64h3.717a3.754,3.754,0,0,1-.188,1.487,18.493,18.493,0,0,1-2.717.316h-1.137Z" transform="translate(-28.769 -24.388)" fill="#1b4242"/>
        <path id="Path_32" data-name="Path 32" d="M130.971,81.187,127.4,75.825a1.035,1.035,0,0,0-1.446-.281l-.005,0q-3.046,2.082-6.41,3.923l-.006,0a1.037,1.037,0,0,0-.4,1.421l0,.006a33.106,33.106,0,0,0,3.944,5.532l.559.621.726-.407a61.614,61.614,0,0,0,6.361-4.054,1.036,1.036,0,0,0,.243-1.4" transform="translate(-33.413 -21.161)" fill="#1b4242"/>
        <path id="Path_33" data-name="Path 33" d="M171.23,16.292l-3.58-5.375a1.031,1.031,0,0,0-1.435-.283l-.011.007a75.008,75.008,0,0,1-6.409,3.93h0a1.032,1.032,0,0,0-.392,1.422,32.718,32.718,0,0,0,3.937,5.532l.56.629.725-.414a62.846,62.846,0,0,0,6.361-4.047l0,0a1.032,1.032,0,0,0,.242-1.4" transform="translate(-44.718 -2.936)" fill="#1b4242"/>
        <path id="Path_34" data-name="Path 34" d="M200.062,36.575v-.017a22.229,22.229,0,0,0-5.546-10.28,14.107,14.107,0,0,0-4.042-2.82,10.9,10.9,0,0,0-4.486-.965,9.54,9.54,0,0,0-4.7,1.17,11.063,11.063,0,0,0-3.7,3.453c-2.094,3.008-3.615,7.545-4.717,13.681V40.8a5.95,5.95,0,0,1-.6,1.743,3.75,3.75,0,0,1-1.615,1.564,6.193,6.193,0,0,1-2.778.547h-.086a28.153,28.153,0,0,1-7.272-.863,1.043,1.043,0,0,1-.735-1.273,8.453,8.453,0,0,0,.273-2.188,10.482,10.482,0,0,0-1.82-5.546A27.578,27.578,0,0,0,153.053,29a39.55,39.55,0,0,0-11.716-6.914l-.017-.017c-.119-.042-.24-.093-.368-.137a55.722,55.722,0,0,0-5.341-1.769l-1.2-.4a1.206,1.206,0,0,0-1.5.726l-.009.017a83.416,83.416,0,0,1-3.3,7.776,1.161,1.161,0,0,0-.111.5,1.071,1.071,0,0,0,.675,1.008,35.42,35.42,0,0,0,7.187,2.145l.914.163.393-.854c.111-.231.214-.462.316-.693a42.726,42.726,0,0,1,5.9,2.923,27.4,27.4,0,0,1,6.939,5.742,1.043,1.043,0,0,1-.214,1.538,20.068,20.068,0,0,1-6.042,2.581,48.71,48.71,0,0,1-12.28,1.325h-4.068a.167.167,0,0,0-.06.009.409.409,0,0,0-.1-.009,20.381,20.381,0,0,1-8.426-1.572,1.044,1.044,0,0,1-.581-1.231,47.428,47.428,0,0,0,1.684-11.067l.026-.718-.675-.273a15.835,15.835,0,0,0-6.025-1.239c-.247,0-.5.009-.752.025a1.023,1.023,0,0,0-.983,1.008V29.6a65.528,65.528,0,0,1-1.436,13.5,1,1,0,0,1-.59.7,12.194,12.194,0,0,1-4.734.854h-.086a24.158,24.158,0,0,1-3.324-.2,17.253,17.253,0,0,1-2.65-.812c-.093-.034-.179-.077-.265-.111a1.018,1.018,0,0,1-.615-.9l-.154-4.427L98.181,1.024a1.038,1.038,0,0,0-.949-.982h-.009a16.016,16.016,0,0,0-4.666.342,15.027,15.027,0,0,0-2.888.94l-.649.291.052.7q.461,6.153,1.487,19.244.82,10.6,1.367,17.921c.094,1.154.18,2.248.257,3.272v.035a11.705,11.705,0,0,0,1.179,4.136,9.312,9.312,0,0,0,2.573,3.1c.239.179.487.359.752.521a8.7,8.7,0,0,0,.983.675c2.376,1.393,5.683,2,9.947,2.009a.563.563,0,0,0,.12-.009A12.865,12.865,0,0,0,113.119,52a10.238,10.238,0,0,0,3.085-2.128,1.032,1.032,0,0,1,1.3-.128,23.263,23.263,0,0,0,12.742,3.487h4.094a57.792,57.792,0,0,0,11.844-1.077,27.327,27.327,0,0,0,7.478-2.64,1.029,1.029,0,0,1,1.051.026,26.116,26.116,0,0,0,14.228,3.692.45.45,0,0,0,.111-.009,11.5,11.5,0,0,0,5.375-1.214,1.02,1.02,0,0,1,.8-.068,33.86,33.86,0,0,0,10.8,1.633c.342,0,.675-.009,1.017-.017h.017a24.57,24.57,0,0,0,7.648-1.145,13.828,13.828,0,0,0,3.068-1.384,6.824,6.824,0,0,0,2.059-1.906l.026-.034.025-.051a11.569,11.569,0,0,0,1.137-5.538v-.247a25.064,25.064,0,0,0-.966-6.674m-7.452,7.87a25.007,25.007,0,0,1-6.862.863,32.56,32.56,0,0,1-5.623-.453,1.036,1.036,0,0,1-.821-1.187c.385-2.171.777-4.042,1.2-5.631a23.416,23.416,0,0,1,1.607-4.486,6.143,6.143,0,0,1,1.769-2.222,3.472,3.472,0,0,1,2.1-.675,4.008,4.008,0,0,1,1.794.419,6.234,6.234,0,0,1,1.751,1.359,14.052,14.052,0,0,1,2.846,5.829l.009.008a32.422,32.422,0,0,1,.94,5.085,1.027,1.027,0,0,1-.718,1.094" transform="translate(-24.995 0)" fill="#1b4242"/>
        <g id="Group_54" data-name="Group 54" transform="translate(79.158 63.001)" opacity="0.6">
          <g id="Group_53" data-name="Group 53">
            <g id="Group_52" data-name="Group 52" clip-path="url(#clip-path-7)">
              <path id="Path_35" data-name="Path 35" d="M113.363,87.6a.255.255,0,0,1,.2.1h0c.04.053.081.107.12.161a6,6,0,0,1,.584,1,.257.257,0,0,0-.35-.07,19.978,19.978,0,0,1-3.647,1.884l-.189.071-.024-.038.18-.14a19.975,19.975,0,0,0,2.926-2.878.254.254,0,0,1,.2-.091" transform="translate(-110.061 -87.597)" fill="#c8c7b0"/>
            </g>
          </g>
        </g>
      </g>
    </g>
    <g id="Group_58" data-name="Group 58" transform="translate(79.159 64.105)">
      <g id="Group_57" data-name="Group 57" clip-path="url(#clip-path-8)">
        <rect id="Rectangle_34" data-name="Rectangle 34" width="4.588" height="3.686" transform="translate(0 0)" fill="url(#linear-gradient-3)"/>
      </g>
    </g>
    <g id="Group_60" data-name="Group 60" transform="translate(79.038 65.455)">
      <g id="Group_59" data-name="Group 59" clip-path="url(#clip-path-9)">
        <rect id="Rectangle_35" data-name="Rectangle 35" width="4.733" height="2.459" transform="translate(-0.008)" fill="url(#linear-gradient-4)"/>
      </g>
    </g>
  </g>
</svg>
