<svg xmlns="http://www.w3.org/2000/svg" width="21.408" height="17.536" viewBox="0 0 21.408 17.536">
  <g id="Group_227" data-name="Group 227" transform="translate(0.5 0.499)">
    <path id="Path_454" data-name="Path 454" d="M-1010.843-2144.13v.695c-.007.025-.014.05-.02.074q-1.478,6.71-2.957,13.419a5.233,5.233,0,0,1-.271,1.025.921.921,0,0,1-1.264.534,2.065,2.065,0,0,1-.521-.278q-2.12-1.507-4.243-3.01c-.292-.207-.229-.2-.481.036l-2.133,1.972a1.135,1.135,0,0,1-.68.331c-.131.011-.2-.029-.188-.172.043-.544.08-1.089.12-1.633.063-.852.131-1.7.186-2.556a.554.554,0,0,1,.2-.418q3.606-3.129,7.207-6.263.667-.58,1.331-1.164c.062-.054.14-.121.086-.214s-.15-.092-.248-.073a1.4,1.4,0,0,0-.454.191q-2.135,1.3-4.272,2.59-3.107,1.883-6.213,3.769a.52.52,0,0,1-.484.056c-.319-.11-.645-.2-.968-.295q-1.72-.519-3.44-1.039a1.16,1.16,0,0,1-.7-.475v-.347a2.022,2.022,0,0,1,1.053-.691l11.658-4.322,6.228-2.309a1.508,1.508,0,0,1,.658-.125A.9.9,0,0,1-1010.843-2144.13Z" transform="translate(1031.25 2144.826)" fill="none" stroke="#fff" stroke-width="1"/>
  </g>
</svg>
