<svg id="Group_2517" data-name="Group 2517" xmlns="http://www.w3.org/2000/svg" xmlns:xlink="http://www.w3.org/1999/xlink" width="178.356" height="77.46" viewBox="0 0 178.356 77.46">
  <defs>
    <clipPath id="clip-path">
      <rect id="Rectangle_66" data-name="Rectangle 66" width="178.356" height="77.46" fill="none"/>
    </clipPath>
    <clipPath id="clip-path-3">
      <rect id="Rectangle_61" data-name="Rectangle 61" width="4.265" height="3.189" fill="none"/>
    </clipPath>
    <clipPath id="clip-path-4">
      <rect id="Rectangle_62" data-name="Rectangle 62" width="4.649" height="3.735" fill="none"/>
    </clipPath>
    <clipPath id="clip-path-5">
      <rect id="Rectangle_63" data-name="Rectangle 63" width="17.283" height="12.922" fill="none"/>
    </clipPath>
    <clipPath id="clip-path-6">
      <rect id="Rectangle_64" data-name="Rectangle 64" width="18.841" height="15.135" fill="none"/>
    </clipPath>
  </defs>
  <g id="Group_2531" data-name="Group 2531" clip-path="url(#clip-path)">
    <g id="Group_2530" data-name="Group 2530" transform="translate(0 0)">
      <g id="Group_2529" data-name="Group 2529" clip-path="url(#clip-path)">
        <g id="Group_2519" data-name="Group 2519" transform="translate(80.203 63.833)" opacity="0.6">
          <g id="Group_2518" data-name="Group 2518">
            <g id="Group_2517-2" data-name="Group 2517" clip-path="url(#clip-path-3)">
              <path id="Path_2255" data-name="Path 2255" d="M113.407,87.6a.258.258,0,0,1,.205.1h0c.041.054.082.109.122.163a6.076,6.076,0,0,1,.592,1.014.26.26,0,0,0-.354-.071,20.241,20.241,0,0,1-3.7,1.909l-.192.072-.024-.039.182-.141a20.238,20.238,0,0,0,2.965-2.916.257.257,0,0,1,.2-.093" transform="translate(-110.061 -87.597)" fill="#fff"/>
            </g>
          </g>
        </g>
        <g id="Group_2522" data-name="Group 2522" transform="translate(80.203 64.951)" opacity="0.8">
          <g id="Group_2521" data-name="Group 2521">
            <g id="Group_2520" data-name="Group 2520" clip-path="url(#clip-path-4)">
              <path id="Path_2256" data-name="Path 2256" d="M110.062,91.164l.058.222.321,1.284a.259.259,0,0,0,.25.2.222.222,0,0,0,.092-.017h0a18.76,18.76,0,0,0,3.8-1.959l.13-.09-.021-.158a5.884,5.884,0,0,0-.265-1.148c-.011-.032-.021-.064-.034-.1l-.026-.071-.034-.077,0,0,0,0a.259.259,0,0,0-.353-.073,20.259,20.259,0,0,1-3.7,1.911l-.192.07Z" transform="translate(-110.062 -89.131)" fill="#fff"/>
            </g>
          </g>
        </g>
        <path id="Path_2257" data-name="Path 2257" d="M161.6,30.637c-.121-.043-.243-.1-.372-.138l.208.069a.931.931,0,0,1,.165.069" transform="translate(-43.739 -8.274)" fill="#fff"/>
        <g id="Group_2525" data-name="Group 2525" transform="translate(20.737 6.25)" opacity="0.6">
          <g id="Group_2524" data-name="Group 2524">
            <g id="Group_2523" data-name="Group 2523" clip-path="url(#clip-path-5)">
              <path id="Path_2258" data-name="Path 2258" d="M32.183,8.577a1.045,1.045,0,0,0-.834.411v0c-.165.218-.334.441-.493.663a24.548,24.548,0,0,0-2.4,4.107,1.049,1.049,0,0,1,1.433-.289,82.02,82.02,0,0,0,14.977,7.736l.777.291.1-.156L45,20.772A82.011,82.011,0,0,1,32.986,8.951a1.044,1.044,0,0,0-.8-.374" transform="translate(-28.457 -8.577)" fill="#fff"/>
            </g>
          </g>
        </g>
        <g id="Group_2528" data-name="Group 2528" transform="translate(19.177 10.78)" opacity="0.8">
          <g id="Group_2527" data-name="Group 2527">
            <g id="Group_2526" data-name="Group 2526" clip-path="url(#clip-path-6)">
              <path id="Path_2259" data-name="Path 2259" d="M45.158,23.027l-.234.9-1.3,5.2a1.048,1.048,0,0,1-1.013.8.919.919,0,0,1-.372-.069h-.009a75.961,75.961,0,0,1-15.386-7.94l-.528-.364.087-.641a23.71,23.71,0,0,1,1.073-4.65c.044-.13.087-.259.138-.389.035-.1.069-.191.1-.286l.138-.312.009-.017a.009.009,0,0,1,.009-.009,1.045,1.045,0,0,1,1.428-.294A82.007,82.007,0,0,0,44.283,22.7l.779.286Z" transform="translate(-26.317 -14.794)" fill="#fff"/>
            </g>
          </g>
        </g>
        <path id="Path_2260" data-name="Path 2260" d="M44.525,32.512a1.05,1.05,0,0,0,1.091-1.13L45.2,26.032l-.07-.931-.931-.035a81.991,81.991,0,0,1-16.655-2.6,1.05,1.05,0,0,0-1.309.984v0c-.007.273-.014.553-.014.826a24.543,24.543,0,0,0,.448,4.752l.119.637.623.175a76.072,76.072,0,0,0,17.109,2.673Z" transform="translate(-7.115 -6.085)" fill="#fff"/>
        <path id="Path_2261" data-name="Path 2261" d="M58.844,48.749c0,.546-.014,1.1-.042,1.672a18.493,18.493,0,0,1-.6,4.143,8.614,8.614,0,0,1-1.463,3.03l-.015.021a10.429,10.429,0,0,1-5.206,3.422,26.63,26.63,0,0,1-8.2,1.084H38.047A120.11,120.11,0,0,1,.777,55.733L0,55.48l.056-.819a18.447,18.447,0,0,1,2.26-7.418l.441-.818.867.336a91.858,91.858,0,0,0,33.764,6.676h4.857a30.9,30.9,0,0,0,7.128-.691,1.9,1.9,0,0,0,1.486-1.821v-.015a29.042,29.042,0,0,0-.665-5.8l-.007-.035a40.135,40.135,0,0,0-3.45-8.95L46.36,35.4l.623-.539a13.2,13.2,0,0,1,6.781-3.128l.805-.133.321.756a58.356,58.356,0,0,1,3.191,10.224,22.321,22.321,0,0,1,.763,6.172" transform="translate(0 -8.572)" fill="#fff"/>
        <path id="Path_2262" data-name="Path 2262" d="M13.837,85.511a7.189,7.189,0,0,1,2.565.382l-2.51,14.355a5.224,5.224,0,0,1-2.183.109Q12.854,93.7,13.7,88.7L8.515,95.281a3.015,3.015,0,0,1-1.393,0L4.2,88.676,2.183,100.22A5.318,5.318,0,0,1,0,100.33q1.255-7.26,2.375-14.437a7.282,7.282,0,0,1,2.756-.382l3.111,7.068Z" transform="translate(0 -23.197)" fill="#fff"/>
        <path id="Path_2263" data-name="Path 2263" d="M27.637,97.314q-.71,0-1.856-.055v.191a2.941,2.941,0,0,0,.805,2.238,3.1,3.1,0,0,0,2.224.764,7.02,7.02,0,0,0,3.329-.791,3.988,3.988,0,0,1,.219,1.719,9.481,9.481,0,0,1-3.985.874,4.658,4.658,0,0,1-3.466-1.215,4.466,4.466,0,0,1-1.2-3.288,6.7,6.7,0,0,1,1.555-4.6,5.659,5.659,0,0,1,4.476-1.759,4.042,4.042,0,0,1,2.538.737,2.279,2.279,0,0,1,.955,1.882,2.671,2.671,0,0,1-1.488,2.47,8.459,8.459,0,0,1-4.107.832M29.22,93a4.56,4.56,0,0,0-1.965.436,4.584,4.584,0,0,0-1.337,2.483,16.727,16.727,0,0,0,1.719.082q3.438,0,3.439-1.665a1.136,1.136,0,0,0-.5-.982A2.306,2.306,0,0,0,29.22,93" transform="translate(-6.431 -24.794)" fill="#fff"/>
        <path id="Path_2264" data-name="Path 2264" d="M38.575,99.783Q40.4,89.031,41.14,84.091a5.16,5.16,0,0,1,2.43-.6L41.741,93.779a35.174,35.174,0,0,0,5.049-4.313,6.823,6.823,0,0,1,2.32.41,38.075,38.075,0,0,1-5.24,4.394l3.875,5.212a5.823,5.823,0,0,1-2.347.41L41.6,94.516l-.9,5.158a4.928,4.928,0,0,1-2.129.109" transform="translate(-10.465 -22.65)" fill="#fff"/>
        <path id="Path_2265" data-name="Path 2265" d="M53.068,99.783q1.557-8.87,2.565-15.692a5.383,5.383,0,0,1,2.43-.6l-1.392,7.423q2.156-1.664,2.975-1.664a3.076,3.076,0,0,1,2.716,1.336,5.16,5.16,0,0,1,.45,3.876l-.9,5.212a4.973,4.973,0,0,1-2.129.109l.846-4.967a4.359,4.359,0,0,0-.192-2.62,1.589,1.589,0,0,0-1.528-.9,4.523,4.523,0,0,0-2.43,1.2L55.2,99.674a4.929,4.929,0,0,1-2.129.109" transform="translate(-14.397 -22.65)" fill="#fff"/>
        <path id="Path_2266" data-name="Path 2266" d="M73.262,100.11a10.111,10.111,0,0,1-3.9-.655Q70.86,91,71.869,84.09a5.162,5.162,0,0,1,2.43-.6l-1.392,7.423q2.156-1.665,3-1.665a3.446,3.446,0,0,1,2.715,1.242A4.676,4.676,0,0,1,79.7,93.669a6.5,6.5,0,0,1-1.677,4.681,6.271,6.271,0,0,1-4.763,1.761m.547-1.883a5.533,5.533,0,0,0,2.237-.464,5.154,5.154,0,0,0,1.393-3.684A3.04,3.04,0,0,0,76.8,92.06a2.028,2.028,0,0,0-1.623-.764,4.529,4.529,0,0,0-2.458,1.2l-.954,5.321a4.551,4.551,0,0,0,2.047.41" transform="translate(-18.816 -22.65)" fill="#fff"/>
        <path id="Path_2267" data-name="Path 2267" d="M92.869,101.927l.136-1.447a11.747,11.747,0,0,1-1.719,1.242,3.088,3.088,0,0,1-1.365.533,3.472,3.472,0,0,1-2.743-1.242,4.672,4.672,0,0,1-1.078-3.18,6.472,6.472,0,0,1,1.692-4.681,6.314,6.314,0,0,1,4.776-1.759,9.657,9.657,0,0,1,3.9.709l-1.72,9.715a6.811,6.811,0,0,1-1.883.109m-2.211-1.719a5.062,5.062,0,0,0,2.484-1.173l.818-5.349A4.05,4.05,0,0,0,92,93.275a5.3,5.3,0,0,0-2.238.464,5.215,5.215,0,0,0-1.364,3.684,3.066,3.066,0,0,0,.627,2.034,2.032,2.032,0,0,0,1.637.751" transform="translate(-23.358 -24.794)" fill="#fff"/>
        <path id="Path_2268" data-name="Path 2268" d="M106.207,96.8a2.442,2.442,0,0,0,.165,1.645,1.349,1.349,0,0,0,1.256.537,5.729,5.729,0,0,0,1.714-.277,7.412,7.412,0,0,1-.1,1.914,8.44,8.44,0,0,1-2.217.294q-3.546,0-2.944-3.87l.788-4.667h-2.4a4.142,4.142,0,0,1,.329-1.827h2.372L105.6,87.4a5.5,5.5,0,0,1,2.381-.545l-.658,3.688h3.766a3.8,3.8,0,0,1-.19,1.507,18.734,18.734,0,0,1-2.753.32h-1.152Z" transform="translate(-27.796 -23.564)" fill="#fff"/>
        <path id="Path_2269" data-name="Path 2269" d="M131.129,81.264l-3.619-5.433a1.049,1.049,0,0,0-1.465-.285l-.005,0q-3.086,2.11-6.494,3.974l-.006,0a1.051,1.051,0,0,0-.4,1.44l0,.006a33.542,33.542,0,0,0,4,5.605l.566.63.735-.412a62.424,62.424,0,0,0,6.445-4.108,1.05,1.05,0,0,0,.246-1.423" transform="translate(-32.283 -20.445)" fill="#fff"/>
        <path id="Path_2270" data-name="Path 2270" d="M171.388,16.369l-3.627-5.446a1.044,1.044,0,0,0-1.454-.287l-.011.007a76,76,0,0,1-6.494,3.982h0a1.045,1.045,0,0,0-.4,1.441,33.149,33.149,0,0,0,3.989,5.605l.567.637.735-.42a63.674,63.674,0,0,0,6.445-4.1l0,0a1.045,1.045,0,0,0,.245-1.417" transform="translate(-43.206 -2.837)" fill="#fff"/>
        <path id="Path_2271" data-name="Path 2271" d="M201.528,37.057V37.04a22.522,22.522,0,0,0-5.619-10.416,14.292,14.292,0,0,0-4.1-2.857,11.042,11.042,0,0,0-4.546-.978,9.666,9.666,0,0,0-4.762,1.186,11.209,11.209,0,0,0-3.749,3.5c-2.121,3.047-3.663,7.645-4.78,13.862v.009a6.029,6.029,0,0,1-.606,1.766,3.8,3.8,0,0,1-1.636,1.585,6.274,6.274,0,0,1-2.814.554h-.087a28.525,28.525,0,0,1-7.368-.874,1.057,1.057,0,0,1-.745-1.29A8.564,8.564,0,0,0,161,40.867a10.621,10.621,0,0,0-1.844-5.619,27.941,27.941,0,0,0-5.255-5.862,40.072,40.072,0,0,0-11.871-7.005l-.017-.017c-.121-.043-.243-.095-.372-.138a56.458,56.458,0,0,0-5.411-1.792l-1.221-.407a1.222,1.222,0,0,0-1.516.736l-.009.017a84.518,84.518,0,0,1-3.342,7.879,1.176,1.176,0,0,0-.112.5,1.085,1.085,0,0,0,.684,1.022,35.888,35.888,0,0,0,7.282,2.173l.926.165.4-.866c.112-.234.216-.468.321-.7a43.29,43.29,0,0,1,5.983,2.961,27.757,27.757,0,0,1,7.031,5.818,1.056,1.056,0,0,1-.216,1.559,20.332,20.332,0,0,1-6.122,2.615,49.353,49.353,0,0,1-12.442,1.342h-4.122a.169.169,0,0,0-.061.009.414.414,0,0,0-.1-.009,20.65,20.65,0,0,1-8.538-1.593,1.058,1.058,0,0,1-.589-1.247A48.054,48.054,0,0,0,122.165,31.2l.026-.727-.684-.277a16.044,16.044,0,0,0-6.1-1.256c-.251,0-.5.009-.761.026a1.036,1.036,0,0,0-1,1.022v.009a66.394,66.394,0,0,1-1.455,13.681,1.012,1.012,0,0,1-.6.71,12.355,12.355,0,0,1-4.8.866h-.087a24.477,24.477,0,0,1-3.368-.208,17.481,17.481,0,0,1-2.685-.823c-.095-.034-.181-.078-.268-.112a1.032,1.032,0,0,1-.623-.909l-.156-4.485L98.3,1.038a1.051,1.051,0,0,0-.961-1h-.009A16.228,16.228,0,0,0,92.6.389a15.226,15.226,0,0,0-2.926.952l-.658.294.052.71q.467,6.234,1.506,19.5Q91.409,32.585,91.964,40c.1,1.169.182,2.277.26,3.316v.035a11.86,11.86,0,0,0,1.194,4.191,9.435,9.435,0,0,0,2.607,3.143c.242.181.493.364.761.528a8.819,8.819,0,0,0,1,.684c2.407,1.412,5.758,2.027,10.078,2.035a.57.57,0,0,0,.122-.009,13.034,13.034,0,0,0,5.454-1.238,10.373,10.373,0,0,0,3.125-2.156,1.045,1.045,0,0,1,1.316-.13,23.57,23.57,0,0,0,12.91,3.533h4.148a58.555,58.555,0,0,0,12-1.092,27.688,27.688,0,0,0,7.576-2.675,1.043,1.043,0,0,1,1.065.026,26.461,26.461,0,0,0,14.416,3.74.456.456,0,0,0,.113-.009,11.652,11.652,0,0,0,5.446-1.23,1.034,1.034,0,0,1,.814-.069,34.307,34.307,0,0,0,10.944,1.654c.346,0,.684-.009,1.03-.017h.018a24.894,24.894,0,0,0,7.749-1.16,14.011,14.011,0,0,0,3.109-1.4,6.914,6.914,0,0,0,2.086-1.931l.026-.034.026-.052a11.722,11.722,0,0,0,1.152-5.611V43.82a25.393,25.393,0,0,0-.979-6.762m-7.55,7.974a25.337,25.337,0,0,1-6.953.874,32.99,32.99,0,0,1-5.7-.459,1.05,1.05,0,0,1-.831-1.2c.39-2.2.788-4.1,1.221-5.706a23.727,23.727,0,0,1,1.628-4.546,6.224,6.224,0,0,1,1.793-2.252,3.518,3.518,0,0,1,2.13-.684,4.061,4.061,0,0,1,1.818.424,6.316,6.316,0,0,1,1.774,1.377,14.237,14.237,0,0,1,2.883,5.905l.009.008a32.854,32.854,0,0,1,.952,5.152,1.041,1.041,0,0,1-.727,1.108" transform="translate(-24.15 0)" fill="#fff"/>
        <path id="Path_2272" data-name="Path 2272" d="M.66,20.336a.487.487,0,0,1,.035-.1v-.008a1.393,1.393,0,0,1,.1-.2" transform="translate(-0.179 -5.432)" fill="#fff"/>
        <path id="Path_2273" data-name="Path 2273" d="M114.682,91.465a6.551,6.551,0,0,1-.112,1.178l-.035.155-.147.044a13.5,13.5,0,0,1-1.471.337,18.734,18.734,0,0,1-2.753.321h-.017a.258.258,0,0,1-.251-.277L110,91.9l.017-.225.225-.009a20.337,20.337,0,0,0,4.112-.649.26.26,0,0,1,.32.243v.009c0,.06.009.13.009.2" transform="translate(-29.813 -24.69)" fill="#fff"/>
      </g>
    </g>
  </g>
</svg>
