<svg xmlns="http://www.w3.org/2000/svg" width="16.157" height="17.73" viewBox="0 0 16.157 17.73">
  <g id="Group_2495" data-name="Group 2495" transform="translate(-756.453 -1869.491)">
    <path id="Path_2252" data-name="Path 2252" d="M770.649,1869.491h1.438c-.045.057-.089.116-.135.173l-1.618,2.021-1.652,2.061-1.693,2.112-.886,1.105a.049.049,0,0,0,0,.071c.008.011.014.023.021.034l2.189,3.42,1.98,3.093,2.1,3.276c.074.115.149.23.223.345,0,.006.008.02-.008.018h-4.813c-.01-.018-.019-.037-.03-.054q-.533-.834-1.068-1.667l-2.172-3.4-1.091-1.705c-.033-.052-.034-.051-.072,0l-1.27,1.585q-.807,1.006-1.613,2.013l-1.606,2-.983,1.225h-1.4c-.01,0-.033.014-.03-.017a.379.379,0,0,0,.033-.035l1.611-2.009,2.242-2.8,2.345-2.927c.069-.087.069-.086.009-.18l-1.994-3.116-1.865-2.915-2.212-3.454c-.055-.087-.107-.176-.169-.258,0-.006-.008-.019.008-.018h4.813c.01.017.018.034.029.05q.377.591.755,1.18l1.875,2.93,1.47,2.3c.032.051.032.05.067,0l1-1.25,1.693-2.113,1.229-1.534Zm-11.152,1.158h-1.009c-.023,0-.056-.014-.066.01s.018.044.032.064l1.485,2.28,1.88,2.888,2.143,3.291,2.2,3.383q1.134,1.74,2.265,3.481a.118.118,0,0,0,.11.062c.454,0,.909,0,1.363,0h.686c.013,0,.031.005.039-.009s-.006-.027-.014-.039l-.6-.922-2.548-3.913-2.273-3.49-2.307-3.543q-1.138-1.747-2.275-3.494a.091.091,0,0,0-.086-.048C760.182,1870.65,759.84,1870.649,759.5,1870.649Z" transform="translate(0 0)" fill="#fff"/>
  </g>
</svg>
